<svg xmlns="http://www.w3.org/2000/svg" viewBox="0 0 850 380" width="850" height="380">
  <defs>
    <filter id="glow">
      <feGaussianBlur stdDeviation="6" result="blur"/>
      <feMerge>
        <feMergeNode in="blur"/>
        <feMergeNode in="SourceGraphic"/>
      </feMerge>
    </filter>
  </defs>

  <style>
    @keyframes inner0 {
      0.00% { transform: translate(555.0px, 210.0px) scale(0.775); opacity: 0.625; }
      4.17% { transform: translate(550.6px, 220.4px) scale(0.833); opacity: 0.722; }
      8.33% { transform: translate(537.6px, 230.0px) scale(0.888); opacity: 0.812; }
      12.50% { transform: translate(516.9px, 238.3px) scale(0.934); opacity: 0.890; }
      16.67% { transform: translate(490.0px, 244.6px) scale(0.970); opacity: 0.950; }
      20.83% { transform: translate(458.6px, 248.6px) scale(0.992); opacity: 0.987; }
      25.00% { transform: translate(425.0px, 250.0px) scale(1.000); opacity: 1.000; }
      29.17% { transform: translate(391.4px, 248.6px) scale(0.992); opacity: 0.987; }
      33.33% { transform: translate(360.0px, 244.6px) scale(0.970); opacity: 0.950; }
      37.50% { transform: translate(333.1px, 238.3px) scale(0.934); opacity: 0.890; }
      41.67% { transform: translate(312.4px, 230.0px) scale(0.888); opacity: 0.812; }
      45.83% { transform: translate(299.4px, 220.4px) scale(0.833); opacity: 0.722; }
      50.00% { transform: translate(295.0px, 210.0px) scale(0.775); opacity: 0.625; }
      54.17% { transform: translate(299.4px, 199.6px) scale(0.717); opacity: 0.528; }
      58.33% { transform: translate(312.4px, 190.0px) scale(0.662); opacity: 0.437; }
      62.50% { transform: translate(333.1px, 181.7px) scale(0.616); opacity: 0.360; }
      66.67% { transform: translate(360.0px, 175.4px) scale(0.580); opacity: 0.300; }
      70.83% { transform: translate(391.4px, 171.4px) scale(0.558); opacity: 0.263; }
      75.00% { transform: translate(425.0px, 170.0px) scale(0.550); opacity: 0.250; }
      79.17% { transform: translate(458.6px, 171.4px) scale(0.558); opacity: 0.263; }
      83.33% { transform: translate(490.0px, 175.4px) scale(0.580); opacity: 0.300; }
      87.50% { transform: translate(516.9px, 181.7px) scale(0.616); opacity: 0.360; }
      91.67% { transform: translate(537.6px, 190.0px) scale(0.662); opacity: 0.437; }
      95.83% { transform: translate(550.6px, 199.6px) scale(0.717); opacity: 0.528; }
      100.00% { transform: translate(555.0px, 210.0px) scale(0.775); opacity: 0.625; }
    }
    @keyframes inner1 {
      0.00% { transform: translate(425.0px, 250.0px) scale(1.000); opacity: 1.000; }
      4.17% { transform: translate(391.4px, 248.6px) scale(0.992); opacity: 0.987; }
      8.33% { transform: translate(360.0px, 244.6px) scale(0.970); opacity: 0.950; }
      12.50% { transform: translate(333.1px, 238.3px) scale(0.934); opacity: 0.890; }
      16.67% { transform: translate(312.4px, 230.0px) scale(0.888); opacity: 0.813; }
      20.83% { transform: translate(299.4px, 220.4px) scale(0.833); opacity: 0.722; }
      25.00% { transform: translate(295.0px, 210.0px) scale(0.775); opacity: 0.625; }
      29.17% { transform: translate(299.4px, 199.6px) scale(0.717); opacity: 0.528; }
      33.33% { transform: translate(312.4px, 190.0px) scale(0.663); opacity: 0.438; }
      37.50% { transform: translate(333.1px, 181.7px) scale(0.616); opacity: 0.360; }
      41.67% { transform: translate(360.0px, 175.4px) scale(0.580); opacity: 0.300; }
      45.83% { transform: translate(391.4px, 171.4px) scale(0.558); opacity: 0.263; }
      50.00% { transform: translate(425.0px, 170.0px) scale(0.550); opacity: 0.250; }
      54.17% { transform: translate(458.6px, 171.4px) scale(0.558); opacity: 0.263; }
      58.33% { transform: translate(490.0px, 175.4px) scale(0.580); opacity: 0.300; }
      62.50% { transform: translate(516.9px, 181.7px) scale(0.616); opacity: 0.360; }
      66.67% { transform: translate(537.6px, 190.0px) scale(0.662); opacity: 0.437; }
      70.83% { transform: translate(550.6px, 199.6px) scale(0.717); opacity: 0.528; }
      75.00% { transform: translate(555.0px, 210.0px) scale(0.775); opacity: 0.625; }
      79.17% { transform: translate(550.6px, 220.4px) scale(0.833); opacity: 0.722; }
      83.33% { transform: translate(537.6px, 230.0px) scale(0.888); opacity: 0.812; }
      87.50% { transform: translate(516.9px, 238.3px) scale(0.934); opacity: 0.890; }
      91.67% { transform: translate(490.0px, 244.6px) scale(0.970); opacity: 0.950; }
      95.83% { transform: translate(458.6px, 248.6px) scale(0.992); opacity: 0.987; }
      100.00% { transform: translate(425.0px, 250.0px) scale(1.000); opacity: 1.000; }
    }
    @keyframes inner2 {
      0.00% { transform: translate(295.0px, 210.0px) scale(0.775); opacity: 0.625; }
      4.17% { transform: translate(299.4px, 199.6px) scale(0.717); opacity: 0.528; }
      8.33% { transform: translate(312.4px, 190.0px) scale(0.663); opacity: 0.438; }
      12.50% { transform: translate(333.1px, 181.7px) scale(0.616); opacity: 0.360; }
      16.67% { transform: translate(360.0px, 175.4px) scale(0.580); opacity: 0.300; }
      20.83% { transform: translate(391.4px, 171.4px) scale(0.558); opacity: 0.263; }
      25.00% { transform: translate(425.0px, 170.0px) scale(0.550); opacity: 0.250; }
      29.17% { transform: translate(458.6px, 171.4px) scale(0.558); opacity: 0.263; }
      33.33% { transform: translate(490.0px, 175.4px) scale(0.580); opacity: 0.300; }
      37.50% { transform: translate(516.9px, 181.7px) scale(0.616); opacity: 0.360; }
      41.67% { transform: translate(537.6px, 190.0px) scale(0.663); opacity: 0.438; }
      45.83% { transform: translate(550.6px, 199.6px) scale(0.717); opacity: 0.528; }
      50.00% { transform: translate(555.0px, 210.0px) scale(0.775); opacity: 0.625; }
      54.17% { transform: translate(550.6px, 220.4px) scale(0.833); opacity: 0.722; }
      58.33% { transform: translate(537.6px, 230.0px) scale(0.888); opacity: 0.812; }
      62.50% { transform: translate(516.9px, 238.3px) scale(0.934); opacity: 0.890; }
      66.67% { transform: translate(490.0px, 244.6px) scale(0.970); opacity: 0.950; }
      70.83% { transform: translate(458.6px, 248.6px) scale(0.992); opacity: 0.987; }
      75.00% { transform: translate(425.0px, 250.0px) scale(1.000); opacity: 1.000; }
      79.17% { transform: translate(391.4px, 248.6px) scale(0.992); opacity: 0.987; }
      83.33% { transform: translate(360.0px, 244.6px) scale(0.970); opacity: 0.950; }
      87.50% { transform: translate(333.1px, 238.3px) scale(0.934); opacity: 0.890; }
      91.67% { transform: translate(312.4px, 230.0px) scale(0.887); opacity: 0.812; }
      95.83% { transform: translate(299.4px, 220.4px) scale(0.833); opacity: 0.722; }
      100.00% { transform: translate(295.0px, 210.0px) scale(0.775); opacity: 0.625; }
    }
    @keyframes inner3 {
      0.00% { transform: translate(425.0px, 170.0px) scale(0.550); opacity: 0.250; }
      4.17% { transform: translate(458.6px, 171.4px) scale(0.558); opacity: 0.263; }
      8.33% { transform: translate(490.0px, 175.4px) scale(0.580); opacity: 0.300; }
      12.50% { transform: translate(516.9px, 181.7px) scale(0.616); opacity: 0.360; }
      16.67% { transform: translate(537.6px, 190.0px) scale(0.662); opacity: 0.437; }
      20.83% { transform: translate(550.6px, 199.6px) scale(0.717); opacity: 0.528; }
      25.00% { transform: translate(555.0px, 210.0px) scale(0.775); opacity: 0.625; }
      29.17% { transform: translate(550.6px, 220.4px) scale(0.833); opacity: 0.722; }
      33.33% { transform: translate(537.6px, 230.0px) scale(0.887); opacity: 0.812; }
      37.50% { transform: translate(516.9px, 238.3px) scale(0.934); opacity: 0.890; }
      41.67% { transform: translate(490.0px, 244.6px) scale(0.970); opacity: 0.950; }
      45.83% { transform: translate(458.6px, 248.6px) scale(0.992); opacity: 0.987; }
      50.00% { transform: translate(425.0px, 250.0px) scale(1.000); opacity: 1.000; }
      54.17% { transform: translate(391.4px, 248.6px) scale(0.992); opacity: 0.987; }
      58.33% { transform: translate(360.0px, 244.6px) scale(0.970); opacity: 0.950; }
      62.50% { transform: translate(333.1px, 238.3px) scale(0.934); opacity: 0.890; }
      66.67% { transform: translate(312.4px, 230.0px) scale(0.887); opacity: 0.812; }
      70.83% { transform: translate(299.4px, 220.4px) scale(0.833); opacity: 0.722; }
      75.00% { transform: translate(295.0px, 210.0px) scale(0.775); opacity: 0.625; }
      79.17% { transform: translate(299.4px, 199.6px) scale(0.717); opacity: 0.528; }
      83.33% { transform: translate(312.4px, 190.0px) scale(0.663); opacity: 0.438; }
      87.50% { transform: translate(333.1px, 181.7px) scale(0.616); opacity: 0.360; }
      91.67% { transform: translate(360.0px, 175.4px) scale(0.580); opacity: 0.300; }
      95.83% { transform: translate(391.4px, 171.4px) scale(0.558); opacity: 0.263; }
      100.00% { transform: translate(425.0px, 170.0px) scale(0.550); opacity: 0.250; }
    }
    @keyframes middle0 {
      0.00% { transform: translate(655.0px, 210.0px) scale(0.775); opacity: 0.625; }
      4.17% { transform: translate(647.2px, 226.8px) scale(0.833); opacity: 0.722; }
      8.33% { transform: translate(624.2px, 242.5px) scale(0.888); opacity: 0.812; }
      12.50% { transform: translate(587.6px, 256.0px) scale(0.934); opacity: 0.890; }
      16.67% { transform: translate(540.0px, 266.3px) scale(0.970); opacity: 0.950; }
      20.83% { transform: translate(484.5px, 272.8px) scale(0.992); opacity: 0.987; }
      25.00% { transform: translate(425.0px, 275.0px) scale(1.000); opacity: 1.000; }
      29.17% { transform: translate(365.5px, 272.8px) scale(0.992); opacity: 0.987; }
      33.33% { transform: translate(310.0px, 266.3px) scale(0.970); opacity: 0.950; }
      37.50% { transform: translate(262.4px, 256.0px) scale(0.934); opacity: 0.890; }
      41.67% { transform: translate(225.8px, 242.5px) scale(0.888); opacity: 0.812; }
      45.83% { transform: translate(202.8px, 226.8px) scale(0.833); opacity: 0.722; }
      50.00% { transform: translate(195.0px, 210.0px) scale(0.775); opacity: 0.625; }
      54.17% { transform: translate(202.8px, 193.2px) scale(0.717); opacity: 0.528; }
      58.33% { transform: translate(225.8px, 177.5px) scale(0.662); opacity: 0.437; }
      62.50% { transform: translate(262.4px, 164.0px) scale(0.616); opacity: 0.360; }
      66.67% { transform: translate(310.0px, 153.7px) scale(0.580); opacity: 0.300; }
      70.83% { transform: translate(365.5px, 147.2px) scale(0.558); opacity: 0.263; }
      75.00% { transform: translate(425.0px, 145.0px) scale(0.550); opacity: 0.250; }
      79.17% { transform: translate(484.5px, 147.2px) scale(0.558); opacity: 0.263; }
      83.33% { transform: translate(540.0px, 153.7px) scale(0.580); opacity: 0.300; }
      87.50% { transform: translate(587.6px, 164.0px) scale(0.616); opacity: 0.360; }
      91.67% { transform: translate(624.2px, 177.5px) scale(0.662); opacity: 0.437; }
      95.83% { transform: translate(647.2px, 193.2px) scale(0.717); opacity: 0.528; }
      100.00% { transform: translate(655.0px, 210.0px) scale(0.775); opacity: 0.625; }
    }
    @keyframes middle1 {
      0.00% { transform: translate(425.0px, 275.0px) scale(1.000); opacity: 1.000; }
      4.17% { transform: translate(365.5px, 272.8px) scale(0.992); opacity: 0.987; }
      8.33% { transform: translate(310.0px, 266.3px) scale(0.970); opacity: 0.950; }
      12.50% { transform: translate(262.4px, 256.0px) scale(0.934); opacity: 0.890; }
      16.67% { transform: translate(225.8px, 242.5px) scale(0.888); opacity: 0.813; }
      20.83% { transform: translate(202.8px, 226.8px) scale(0.833); opacity: 0.722; }
      25.00% { transform: translate(195.0px, 210.0px) scale(0.775); opacity: 0.625; }
      29.17% { transform: translate(202.8px, 193.2px) scale(0.717); opacity: 0.528; }
      33.33% { transform: translate(225.8px, 177.5px) scale(0.663); opacity: 0.438; }
      37.50% { transform: translate(262.4px, 164.0px) scale(0.616); opacity: 0.360; }
      41.67% { transform: translate(310.0px, 153.7px) scale(0.580); opacity: 0.300; }
      45.83% { transform: translate(365.5px, 147.2px) scale(0.558); opacity: 0.263; }
      50.00% { transform: translate(425.0px, 145.0px) scale(0.550); opacity: 0.250; }
      54.17% { transform: translate(484.5px, 147.2px) scale(0.558); opacity: 0.263; }
      58.33% { transform: translate(540.0px, 153.7px) scale(0.580); opacity: 0.300; }
      62.50% { transform: translate(587.6px, 164.0px) scale(0.616); opacity: 0.360; }
      66.67% { transform: translate(624.2px, 177.5px) scale(0.662); opacity: 0.437; }
      70.83% { transform: translate(647.2px, 193.2px) scale(0.717); opacity: 0.528; }
      75.00% { transform: translate(655.0px, 210.0px) scale(0.775); opacity: 0.625; }
      79.17% { transform: translate(647.2px, 226.8px) scale(0.833); opacity: 0.722; }
      83.33% { transform: translate(624.2px, 242.5px) scale(0.888); opacity: 0.812; }
      87.50% { transform: translate(587.6px, 256.0px) scale(0.934); opacity: 0.890; }
      91.67% { transform: translate(540.0px, 266.3px) scale(0.970); opacity: 0.950; }
      95.83% { transform: translate(484.5px, 272.8px) scale(0.992); opacity: 0.987; }
      100.00% { transform: translate(425.0px, 275.0px) scale(1.000); opacity: 1.000; }
    }
    @keyframes middle2 {
      0.00% { transform: translate(195.0px, 210.0px) scale(0.775); opacity: 0.625; }
      4.17% { transform: translate(202.8px, 193.2px) scale(0.717); opacity: 0.528; }
      8.33% { transform: translate(225.8px, 177.5px) scale(0.663); opacity: 0.438; }
      12.50% { transform: translate(262.4px, 164.0px) scale(0.616); opacity: 0.360; }
      16.67% { transform: translate(310.0px, 153.7px) scale(0.580); opacity: 0.300; }
      20.83% { transform: translate(365.5px, 147.2px) scale(0.558); opacity: 0.263; }
      25.00% { transform: translate(425.0px, 145.0px) scale(0.550); opacity: 0.250; }
      29.17% { transform: translate(484.5px, 147.2px) scale(0.558); opacity: 0.263; }
      33.33% { transform: translate(540.0px, 153.7px) scale(0.580); opacity: 0.300; }
      37.50% { transform: translate(587.6px, 164.0px) scale(0.616); opacity: 0.360; }
      41.67% { transform: translate(624.2px, 177.5px) scale(0.663); opacity: 0.438; }
      45.83% { transform: translate(647.2px, 193.2px) scale(0.717); opacity: 0.528; }
      50.00% { transform: translate(655.0px, 210.0px) scale(0.775); opacity: 0.625; }
      54.17% { transform: translate(647.2px, 226.8px) scale(0.833); opacity: 0.722; }
      58.33% { transform: translate(624.2px, 242.5px) scale(0.888); opacity: 0.812; }
      62.50% { transform: translate(587.6px, 256.0px) scale(0.934); opacity: 0.890; }
      66.67% { transform: translate(540.0px, 266.3px) scale(0.970); opacity: 0.950; }
      70.83% { transform: translate(484.5px, 272.8px) scale(0.992); opacity: 0.987; }
      75.00% { transform: translate(425.0px, 275.0px) scale(1.000); opacity: 1.000; }
      79.17% { transform: translate(365.5px, 272.8px) scale(0.992); opacity: 0.987; }
      83.33% { transform: translate(310.0px, 266.3px) scale(0.970); opacity: 0.950; }
      87.50% { transform: translate(262.4px, 256.0px) scale(0.934); opacity: 0.890; }
      91.67% { transform: translate(225.8px, 242.5px) scale(0.887); opacity: 0.812; }
      95.83% { transform: translate(202.8px, 226.8px) scale(0.833); opacity: 0.722; }
      100.00% { transform: translate(195.0px, 210.0px) scale(0.775); opacity: 0.625; }
    }
    @keyframes middle3 {
      0.00% { transform: translate(425.0px, 145.0px) scale(0.550); opacity: 0.250; }
      4.17% { transform: translate(484.5px, 147.2px) scale(0.558); opacity: 0.263; }
      8.33% { transform: translate(540.0px, 153.7px) scale(0.580); opacity: 0.300; }
      12.50% { transform: translate(587.6px, 164.0px) scale(0.616); opacity: 0.360; }
      16.67% { transform: translate(624.2px, 177.5px) scale(0.662); opacity: 0.437; }
      20.83% { transform: translate(647.2px, 193.2px) scale(0.717); opacity: 0.528; }
      25.00% { transform: translate(655.0px, 210.0px) scale(0.775); opacity: 0.625; }
      29.17% { transform: translate(647.2px, 226.8px) scale(0.833); opacity: 0.722; }
      33.33% { transform: translate(624.2px, 242.5px) scale(0.887); opacity: 0.812; }
      37.50% { transform: translate(587.6px, 256.0px) scale(0.934); opacity: 0.890; }
      41.67% { transform: translate(540.0px, 266.3px) scale(0.970); opacity: 0.950; }
      45.83% { transform: translate(484.5px, 272.8px) scale(0.992); opacity: 0.987; }
      50.00% { transform: translate(425.0px, 275.0px) scale(1.000); opacity: 1.000; }
      54.17% { transform: translate(365.5px, 272.8px) scale(0.992); opacity: 0.987; }
      58.33% { transform: translate(310.0px, 266.3px) scale(0.970); opacity: 0.950; }
      62.50% { transform: translate(262.4px, 256.0px) scale(0.934); opacity: 0.890; }
      66.67% { transform: translate(225.8px, 242.5px) scale(0.887); opacity: 0.812; }
      70.83% { transform: translate(202.8px, 226.8px) scale(0.833); opacity: 0.722; }
      75.00% { transform: translate(195.0px, 210.0px) scale(0.775); opacity: 0.625; }
      79.17% { transform: translate(202.8px, 193.2px) scale(0.717); opacity: 0.528; }
      83.33% { transform: translate(225.8px, 177.5px) scale(0.663); opacity: 0.438; }
      87.50% { transform: translate(262.4px, 164.0px) scale(0.616); opacity: 0.360; }
      91.67% { transform: translate(310.0px, 153.7px) scale(0.580); opacity: 0.300; }
      95.83% { transform: translate(365.5px, 147.2px) scale(0.558); opacity: 0.263; }
      100.00% { transform: translate(425.0px, 145.0px) scale(0.550); opacity: 0.250; }
    }
    @keyframes outer0 {
      0.00% { transform: translate(745.0px, 210.0px) scale(0.775); opacity: 0.625; }
      4.17% { transform: translate(734.1px, 232.0px) scale(0.833); opacity: 0.722; }
      8.33% { transform: translate(702.1px, 252.5px) scale(0.888); opacity: 0.812; }
      12.50% { transform: translate(651.3px, 270.1px) scale(0.934); opacity: 0.890; }
      16.67% { transform: translate(585.0px, 283.6px) scale(0.970); opacity: 0.950; }
      20.83% { transform: translate(507.8px, 292.1px) scale(0.992); opacity: 0.987; }
      25.00% { transform: translate(425.0px, 295.0px) scale(1.000); opacity: 1.000; }
      29.17% { transform: translate(342.2px, 292.1px) scale(0.992); opacity: 0.987; }
      33.33% { transform: translate(265.0px, 283.6px) scale(0.970); opacity: 0.950; }
      37.50% { transform: translate(198.7px, 270.1px) scale(0.934); opacity: 0.890; }
      41.67% { transform: translate(147.9px, 252.5px) scale(0.888); opacity: 0.812; }
      45.83% { transform: translate(115.9px, 232.0px) scale(0.833); opacity: 0.722; }
      50.00% { transform: translate(105.0px, 210.0px) scale(0.775); opacity: 0.625; }
      54.17% { transform: translate(115.9px, 188.0px) scale(0.717); opacity: 0.528; }
      58.33% { transform: translate(147.9px, 167.5px) scale(0.662); opacity: 0.437; }
      62.50% { transform: translate(198.7px, 149.9px) scale(0.616); opacity: 0.360; }
      66.67% { transform: translate(265.0px, 136.4px) scale(0.580); opacity: 0.300; }
      70.83% { transform: translate(342.2px, 127.9px) scale(0.558); opacity: 0.263; }
      75.00% { transform: translate(425.0px, 125.0px) scale(0.550); opacity: 0.250; }
      79.17% { transform: translate(507.8px, 127.9px) scale(0.558); opacity: 0.263; }
      83.33% { transform: translate(585.0px, 136.4px) scale(0.580); opacity: 0.300; }
      87.50% { transform: translate(651.3px, 149.9px) scale(0.616); opacity: 0.360; }
      91.67% { transform: translate(702.1px, 167.5px) scale(0.662); opacity: 0.437; }
      95.83% { transform: translate(734.1px, 188.0px) scale(0.717); opacity: 0.528; }
      100.00% { transform: translate(745.0px, 210.0px) scale(0.775); opacity: 0.625; }
    }
    @keyframes outer1 {
      0.00% { transform: translate(105.0px, 210.0px) scale(0.775); opacity: 0.625; }
      4.17% { transform: translate(115.9px, 188.0px) scale(0.717); opacity: 0.528; }
      8.33% { transform: translate(147.9px, 167.5px) scale(0.663); opacity: 0.438; }
      12.50% { transform: translate(198.7px, 149.9px) scale(0.616); opacity: 0.360; }
      16.67% { transform: translate(265.0px, 136.4px) scale(0.580); opacity: 0.300; }
      20.83% { transform: translate(342.2px, 127.9px) scale(0.558); opacity: 0.263; }
      25.00% { transform: translate(425.0px, 125.0px) scale(0.550); opacity: 0.250; }
      29.17% { transform: translate(507.8px, 127.9px) scale(0.558); opacity: 0.263; }
      33.33% { transform: translate(585.0px, 136.4px) scale(0.580); opacity: 0.300; }
      37.50% { transform: translate(651.3px, 149.9px) scale(0.616); opacity: 0.360; }
      41.67% { transform: translate(702.1px, 167.5px) scale(0.663); opacity: 0.438; }
      45.83% { transform: translate(734.1px, 188.0px) scale(0.717); opacity: 0.528; }
      50.00% { transform: translate(745.0px, 210.0px) scale(0.775); opacity: 0.625; }
      54.17% { transform: translate(734.1px, 232.0px) scale(0.833); opacity: 0.722; }
      58.33% { transform: translate(702.1px, 252.5px) scale(0.888); opacity: 0.812; }
      62.50% { transform: translate(651.3px, 270.1px) scale(0.934); opacity: 0.890; }
      66.67% { transform: translate(585.0px, 283.6px) scale(0.970); opacity: 0.950; }
      70.83% { transform: translate(507.8px, 292.1px) scale(0.992); opacity: 0.987; }
      75.00% { transform: translate(425.0px, 295.0px) scale(1.000); opacity: 1.000; }
      79.17% { transform: translate(342.2px, 292.1px) scale(0.992); opacity: 0.987; }
      83.33% { transform: translate(265.0px, 283.6px) scale(0.970); opacity: 0.950; }
      87.50% { transform: translate(198.7px, 270.1px) scale(0.934); opacity: 0.890; }
      91.67% { transform: translate(147.9px, 252.5px) scale(0.887); opacity: 0.812; }
      95.83% { transform: translate(115.9px, 232.0px) scale(0.833); opacity: 0.722; }
      100.00% { transform: translate(105.0px, 210.0px) scale(0.775); opacity: 0.625; }
    }
    @keyframes centerPulse {
      0%, 100% { stroke-opacity: 0.6; }
      50% { stroke-opacity: 1; }
    }
  </style>

  <!-- Background -->
  <rect width="850" height="380" fill="#0d1117" stroke="#30363d" rx="12"/>

  <!-- Title -->
  <text x="425" y="32" text-anchor="middle" font-family="ui-monospace, SFMono-Regular, 'SF Mono', Menlo, monospace" font-size="16" font-weight="bold" fill="#e6edf3">Tech Stack</text>
  <text x="425" y="50" text-anchor="middle" font-family="ui-monospace, SFMono-Regular, 'SF Mono', Menlo, monospace" font-size="11" fill="#6e7681">Full Stack | Backend Specialist</text>

  <!-- Orbit Paths (dashed ellipses) -->
  <ellipse cx="425" cy="210" rx="130" ry="40" fill="none" stroke="#30363d" stroke-dasharray="4 4" opacity="0.3"/>
  <ellipse cx="425" cy="210" rx="230" ry="65" fill="none" stroke="#30363d" stroke-dasharray="4 4" opacity="0.3"/>
  <ellipse cx="425" cy="210" rx="320" ry="85" fill="none" stroke="#30363d" stroke-dasharray="4 4" opacity="0.3"/>

  <!-- Center Hub with Glow -->
  <g filter="url(#glow)">
    <circle cx="425" cy="210" r="30" fill="#161b22" stroke="#00f0ff" stroke-width="1.5" style="animation: centerPulse 3s ease-in-out infinite"/>
  </g>
  <text x="425" y="207" text-anchor="middle" font-family="ui-monospace, SFMono-Regular, 'SF Mono', Menlo, monospace" font-size="9" font-weight="bold" fill="#00f0ff">FULL</text>
  <text x="425" y="219" text-anchor="middle" font-family="ui-monospace, SFMono-Regular, 'SF Mono', Menlo, monospace" font-size="9" font-weight="bold" fill="#00f0ff">STACK</text>

  <!-- ===== INNER ORBIT: Backend Core (18s) ===== -->

  <!-- Java -->
  <g style="animation: inner0 18s linear infinite">
    <circle r="20" fill="#eab308"/>
    <g transform="translate(-12,-12) scale(1.0)">
      <path d="M8.851 18.56s-.917.534.653.714c1.902.218 2.874.187 4.969-.211 0 0 .552.346 1.321.646-4.699 2.013-10.633-.118-6.943-1.149M8.276 15.933s-1.028.761.542.924c2.032.209 3.636.227 6.413-.308 0 0 .384.389.987.602-5.679 1.661-12.007.13-7.942-1.218M13.116 11.475c1.158 1.333-.304 2.533-.304 2.533s2.939-1.518 1.589-3.418c-1.261-1.772-2.228-2.652 3.007-5.688 0-.001-8.216 2.051-4.292 6.573M19.33 20.504s.679.559-.747.991c-2.712.822-11.288 1.069-13.669.033-.856-.373.75-.89 1.254-.998.527-.114.828-.093.828-.093-.953-.671-6.156 1.317-2.643 1.887 9.58 1.553 17.462-.7 14.977-1.82M9.292 13.21s-4.362 1.036-1.544 1.412c1.189.159 3.561.123 5.77-.062 1.806-.152 3.618-.477 3.618-.477s-.637.272-1.098.587c-4.429 1.165-12.986.623-10.522-.568 2.082-1.006 3.776-.892 3.776-.892M17.116 17.584c4.503-2.34 2.421-4.589.968-4.285-.355.074-.515.138-.515.138s.132-.207.385-.297c2.875-1.011 5.086 2.981-.928 4.562 0-.001.07-.062.09-.118M14.401 0s2.494 2.494-2.365 6.33c-3.896 3.077-.888 4.832-.001 6.836-2.274-2.053-3.943-3.858-2.824-5.539 1.644-2.469 6.197-3.665 5.19-7.627M9.734 23.924c4.322.277 10.959-.153 11.116-2.198 0 0-.302.775-3.572 1.391-3.688.694-8.239.613-10.937.168 0-.001.553.457 3.393.639" fill="white"/>
    </g>
  </g>

  <!-- Spring Boot -->
  <g style="animation: inner1 18s linear infinite">
    <circle r="20" fill="#6DB33F"/>
    <g transform="translate(-12,-12) scale(1.0)">
      <path d="m23.693 10.7058-4.73-8.1844c-.4094-.7106-1.4166-1.2942-2.2402-1.2942H7.2725c-.819 0-1.8308.5836-2.2402 1.2942L.307 10.7058c-.4095.7106-.4095 1.873 0 2.5837l4.7252 8.189c.4094.7107 1.4166 1.2943 2.2402 1.2943h9.455c.819 0 1.826-.5836 2.2402-1.2942l4.7252-8.189c.4095-.7107.4095-1.8732 0-2.5838zM10.9763 5.7547c0-.5365.4377-.9742.9742-.9742s.9742.4377.9742.9742v5.8217c0 .5366-.4377.9742-.9742.9742s-.9742-.4376-.9742-.9742zm.9742 12.4294c-3.6427 0-6.6077-2.965-6.6077-6.6077.0047-2.0896.993-4.0521 2.6685-5.304a.8657.8657 0 0 1 1.2142.1788.8657.8657 0 0 1-.1788 1.2143c-2.1602 1.6048-2.612 4.6592-1.0072 6.8194 1.6049 2.1603 4.6593 2.612 6.8195 1.0072 1.2378-.9177 1.9673-2.372 1.9673-3.9157a4.8972 4.8972 0 0 0-1.9861-3.925c-.386-.2824-.466-.8284-.1836-1.2143.2824-.386.8283-.466 1.2143-.1835 1.6895 1.2471 2.6826 3.2238 2.6873 5.3228 0 3.6474-2.965 6.6077-6.6077 6.6077z" fill="white"/>
    </g>
  </g>

  <!-- PostgreSQL -->
  <g style="animation: inner2 18s linear infinite">
    <circle r="20" fill="#4169E1"/>
    <g transform="translate(-10,-10) scale(0.833)">
      <path d="M23.5594 14.7228a.5269.5269 0 0 0-.0563-.1191c-.139-.2632-.4768-.3418-1.0074-.2321-1.6533.3411-2.2935.1312-2.5256-.0191 1.342-2.0482 2.445-4.522 3.0411-6.8297.2714-1.0507.7982-3.5237.1222-4.7316a1.5641 1.5641 0 0 0-.1509-.235C21.6931.9086 19.8007.0248 17.5099.0005c-1.4947-.0158-2.7705.3461-3.1161.4794a9.449 9.449 0 0 0-.5159-.0816 8.044 8.044 0 0 0-1.3114-.1278c-1.1822-.0184-2.2038.2642-3.0498.8406-.8573-.3211-4.7888-1.645-7.2219.0788C.9359 2.1526.3086 3.8733.4302 6.3043c.0409.818.5069 3.334 1.2423 5.7436.4598 1.5065.9387 2.7019 1.4334 3.582.553.9942 1.1259 1.5933 1.7143 1.7895.4474.1491 1.1327.1441 1.8581-.7279.8012-.9635 1.5903-1.8258 1.9446-2.2069.4351.2355.9064.3625 1.39.3772a.0569.0569 0 0 0 .0004.0041 11.0312 11.0312 0 0 0-.2472.3054c-.3389.4302-.4094.5197-1.5002.7443-.3102.064-1.1344.2339-1.1464.8115-.0025.1224.0329.2309.0919.3268.2269.4231.9216.6097 1.015.6331 1.3345.3335 2.5044.092 3.3714-.6787-.017 2.231.0775 4.4174.3454 5.0874.2212.5529.7618 1.9045 2.4692 1.9043.2505 0 .5263-.0291.8296-.0941 1.7819-.3821 2.5557-1.1696 2.855-2.9059.1503-.8707.4016-2.8753.5388-4.1012.0169-.0703.0357-.1207.057-.1362.0007-.0005.0697-.0471.4272.0307a.3673.3673 0 0 0 .0443.0068l.2539.0223.0149.001c.8468.0384 1.9114-.1426 2.5312-.4308.6438-.2988 1.8057-1.0323 1.5951-1.6698z" fill="white"/>
    </g>
  </g>

  <!-- Redis -->
  <g style="animation: inner3 18s linear infinite">
    <circle r="20" fill="#FF4438"/>
    <g transform="translate(-10,-10) scale(0.833)">
      <path d="M22.71 13.145c-1.66 2.092-3.452 4.483-7.038 4.483-3.203 0-4.397-2.825-4.48-5.12.701 1.484 2.073 2.685 4.214 2.63 4.117-.133 6.94-3.852 6.94-7.239 0-4.05-3.022-6.972-8.268-6.972-3.752 0-8.4 1.428-11.455 3.685C2.59 6.937 3.885 9.958 4.35 9.626c2.648-1.904 4.748-3.13 6.784-3.744C8.12 9.244.886 17.05 0 18.425c.1 1.261 1.66 4.648 2.424 4.648.232 0 .431-.133.664-.365a 100.49 100.49 0 0 0 5.54-6.765c.222 3.104 1.748 6.898 6.014 6.898 3.819 0 7.604-2.756 9.33-8.965.2-.764-.73-1.361-1.261-.73zm-4.349-5.013c0 1.959-1.926 2.922-3.685 2.922-.941 0-1.664-.247-2.235-.568 1.051-1.592 2.092-3.225 3.21-4.973 1.972.334 2.71 1.43 2.71 2.619z" fill="white"/>
    </g>
  </g>

  <!-- ===== MIDDLE ORBIT: Fullstack (25s) ===== -->

  <!-- Python -->
  <g style="animation: middle0 25s linear infinite">
    <circle r="20" fill="#3776AB"/>
    <g transform="translate(-10,-10) scale(0.833)">
      <path d="M14.25.18l.9.2.73.26.59.3.45.32.34.34.25.34.16.33.1.3.04.26.02.2-.01.13V8.5l-.05.63-.13.55-.21.46-.26.38-.3.31-.33.25-.35.19-.35.14-.33.1-.3.07-.26.04-.21.02H8.77l-.69.05-.59.14-.5.22-.41.27-.33.32-.27.35-.2.36-.15.37-.1.35-.07.32-.04.27-.02.21v3.06H3.17l-.21-.03-.28-.07-.32-.12-.35-.18-.36-.26-.36-.36-.35-.46-.32-.59-.28-.73-.21-.88-.14-1.05-.05-1.23.06-1.22.16-1.04.24-.87.32-.71.36-.57.4-.44.42-.33.42-.24.4-.16.36-.1.32-.05.24-.01h.16l.06.01h8.16v-.83H6.18l-.01-2.75-.02-.37.05-.34.11-.31.17-.28.25-.26.31-.23.38-.2.44-.18.51-.15.58-.12.64-.1.71-.06.77-.04.84-.02 1.27.05zm-6.3 1.98l-.23.33-.08.41.08.41.23.34.33.22.41.09.41-.09.33-.22.23-.34.08-.41-.08-.41-.23-.33-.33-.22-.41-.09-.41.09zm13.09 3.95l.28.06.32.12.35.18.36.27.36.35.35.47.32.59.28.73.21.88.14 1.04.05 1.23-.06 1.23-.16 1.04-.24.86-.32.71-.36.57-.4.45-.42.33-.42.24-.4.16-.36.09-.32.05-.24.02-.16-.01h-8.22v.82h5.84l.01 2.76.02.36-.05.34-.11.31-.17.29-.25.25-.31.24-.38.2-.44.17-.51.15-.58.13-.64.09-.71.07-.77.04-.84.01-1.27-.04-1.07-.14-.9-.2-.73-.25-.59-.3-.45-.33-.34-.34-.25-.34-.16-.33-.1-.3-.04-.25-.02-.2.01-.13v-5.34l.05-.64.13-.54.21-.46.26-.38.3-.32.33-.24.35-.2.35-.14.33-.1.3-.06.26-.04.21-.02.13-.01h5.84l.69-.05.59-.14.5-.21.41-.28.33-.32.27-.35.2-.36.15-.36.1-.35.07-.32.04-.28.02-.21V6.07h2.09l.14.01zm-6.47 14.25l-.23.33-.08.41.08.41.23.33.33.23.41.08.41-.08.33-.23.23-.33.08-.41-.08-.41-.23-.33-.33-.23-.41-.08-.41.08z" fill="white"/>
    </g>
  </g>

  <!-- Node.js -->
  <g style="animation: middle1 25s linear infinite">
    <circle r="20" fill="#5FA04E"/>
    <g transform="translate(-10,-10) scale(0.833)">
      <path d="M11.998,24c-0.321,0-0.641-0.084-0.922-0.247l-2.936-1.737c-0.438-0.245-0.224-0.332-0.08-0.383 c0.585-0.203,0.703-0.25,1.328-0.604c0.065-0.037,0.151-0.023,0.218,0.017l2.256,1.339c0.082,0.045,0.197,0.045,0.272,0l8.795-5.076 c0.082-0.047,0.134-0.141,0.134-0.238V6.921c0-0.099-0.053-0.192-0.137-0.242l-8.791-5.072c-0.081-0.047-0.189-0.047-0.271,0 L3.075,6.68C2.99,6.729,2.936,6.825,2.936,6.921v10.15c0,0.097,0.054,0.189,0.139,0.235l2.409,1.392 c1.307,0.654,2.108-0.116,2.108-0.89V7.787c0-0.142,0.114-0.253,0.256-0.253h1.115c0.139,0,0.255,0.112,0.255,0.253v10.021 c0,1.745-0.95,2.745-2.604,2.745c-0.508,0-0.909,0-2.026-0.551L2.28,18.675c-0.57-0.329-0.922-0.945-0.922-1.604V6.921 c0-0.659,0.353-1.275,0.922-1.603l8.795-5.082c0.557-0.315,1.296-0.315,1.848,0l8.794,5.082c0.57,0.329,0.924,0.944,0.924,1.603 v10.15c0,0.659-0.354,1.273-0.924,1.604l-8.794,5.078C12.643,23.916,12.324,24,11.998,24z M19.099,13.993 c0-1.9-1.284-2.406-3.987-2.763c-2.731-0.361-3.009-0.548-3.009-1.187c0-0.528,0.235-1.233,2.258-1.233 c1.807,0,2.473,0.389,2.747,1.607c0.024,0.115,0.129,0.199,0.247,0.199h1.141c0.071,0,0.138-0.031,0.186-0.081 c0.048-0.054,0.074-0.123,0.067-0.196c-0.177-2.098-1.571-3.076-4.388-3.076c-2.508,0-4.004,1.058-4.004,2.833 c0,1.925,1.488,2.457,3.895,2.695c2.88,0.282,3.103,0.703,3.103,1.269c0,0.983-0.789,1.402-2.642,1.402 c-2.327,0-2.839-0.584-3.011-1.742c-0.02-0.124-0.126-0.215-0.253-0.215h-1.137c-0.141,0-0.254,0.112-0.254,0.253 c0,1.482,0.806,3.248,4.655,3.248C17.501,17.007,19.099,15.91,19.099,13.993z" fill="white"/>
    </g>
  </g>

  <!-- React -->
  <g style="animation: middle2 25s linear infinite">
    <circle r="20" fill="#61DAFB"/>
    <g transform="translate(-10,-10) scale(0.833)">
      <path d="M14.23 12.004a2.236 2.236 0 0 1-2.235 2.236 2.236 2.236 0 0 1-2.236-2.236 2.236 2.236 0 0 1 2.235-2.236 2.236 2.236 0 0 1 2.236 2.236zm2.648-10.69c-1.346 0-3.107.96-4.888 2.622-1.78-1.653-3.542-2.602-4.887-2.602-.41 0-.783.093-1.106.278-1.375.793-1.683 3.264-.973 6.365C1.98 8.917 0 10.42 0 12.004c0 1.59 1.99 3.097 5.043 4.03-.704 3.113-.39 5.588.988 6.38.32.187.69.275 1.102.275 1.345 0 3.107-.96 4.888-2.624 1.78 1.654 3.542 2.603 4.887 2.603.41 0 .783-.09 1.106-.275 1.374-.792 1.683-3.263.973-6.365C22.02 15.096 24 13.59 24 12.004c0-1.59-1.99-3.097-5.043-4.032.704-3.11.39-5.587-.988-6.38-.318-.184-.688-.277-1.092-.278zm-.005 1.09v.006c.225 0 .406.044.558.127.666.382.955 1.835.73 3.704-.054.46-.142.945-.25 1.44-.96-.236-2.006-.417-3.107-.534-.66-.905-1.345-1.727-2.035-2.447 1.592-1.48 3.087-2.292 4.105-2.295zm-9.77.02c1.012 0 2.514.808 4.11 2.28-.686.72-1.37 1.537-2.02 2.442-1.107.117-2.154.298-3.113.538-.112-.49-.195-.964-.254-1.42-.23-1.868.054-3.32.714-3.707.19-.09.4-.127.563-.132zm4.882 3.05c.455.468.91.992 1.36 1.564-.44-.02-.89-.034-1.345-.034-.46 0-.915.01-1.36.034.44-.572.895-1.096 1.345-1.565zM12 8.1c.74 0 1.477.034 2.202.093.406.582.802 1.203 1.183 1.86.372.64.71 1.29 1.018 1.946-.308.655-.646 1.31-1.013 1.95-.38.66-.773 1.288-1.18 1.87-.728.063-1.466.098-2.21.098-.74 0-1.477-.035-2.202-.093-.406-.582-.802-1.204-1.183-1.86-.372-.64-.71-1.29-1.018-1.946.303-.657.646-1.313 1.013-1.954.38-.66.773-1.286 1.18-1.868.728-.064 1.466-.098 2.21-.098zm-3.635.254c-.24.377-.48.763-.704 1.16-.225.39-.435.782-.635 1.174-.265-.656-.49-1.31-.676-1.947.64-.15 1.315-.283 2.015-.386zm7.26 0c.695.103 1.365.23 2.006.387-.18.632-.405 1.282-.66 1.933-.2-.39-.41-.783-.64-1.174-.225-.392-.465-.774-.705-1.146zm3.063.675c.484.15.944.317 1.375.498 1.732.74 2.852 1.708 2.852 2.476-.005.768-1.125 1.74-2.857 2.475-.42.18-.88.342-1.355.493-.28-.958-.646-1.956-1.1-2.98.45-1.017.81-2.01 1.085-2.964zm-13.395.004c.278.96.645 1.957 1.1 2.98-.45 1.017-.812 2.01-1.086 2.964-.484-.15-.944-.318-1.37-.5-1.732-.737-2.852-1.706-2.852-2.474 0-.768 1.12-1.742 2.852-2.476.42-.18.88-.342 1.356-.494zm11.678 4.28c.265.657.49 1.312.676 1.948-.64.157-1.316.29-2.016.39.24-.375.48-.762.705-1.158.225-.39.435-.788.636-1.18zm-9.945.02c.2.392.41.783.64 1.175.23.39.465.772.705 1.143-.695-.102-1.365-.23-2.006-.386.18-.63.406-1.282.66-1.933zM17.92 16.32c.112.493.2.968.254 1.423.23 1.868-.054 3.32-.714 3.708-.147.09-.338.128-.563.128-1.012 0-2.514-.807-4.11-2.28.686-.72 1.37-1.536 2.02-2.44 1.107-.118 2.154-.3 3.113-.54zm-11.83.01c.96.234 2.006.415 3.107.532.66.905 1.345 1.727 2.035 2.446-1.595 1.483-3.092 2.295-4.11 2.295-.22-.005-.406-.05-.553-.132-.666-.38-.955-1.834-.73-3.703.054-.46.142-.944.25-1.438zm4.56.64c.44.02.89.034 1.345.034.46 0 .915-.01 1.36-.034-.44.572-.895 1.095-1.345 1.565-.455-.47-.91-.993-1.36-1.565z" fill="white"/>
    </g>
  </g>

  <!-- TypeScript -->
  <g style="animation: middle3 25s linear infinite">
    <circle r="20" fill="#3178C6"/>
    <g transform="translate(-10,-10) scale(0.833)">
      <path d="M1.125 0C.502 0 0 .502 0 1.125v21.75C0 23.498.502 24 1.125 24h21.75c.623 0 1.125-.502 1.125-1.125V1.125C24 .502 23.498 0 22.875 0zm17.363 9.75c.612 0 1.154.037 1.627.111a6.38 6.38 0 0 1 1.306.34v2.458a3.95 3.95 0 0 0-.643-.361 5.093 5.093 0 0 0-.717-.26 5.453 5.453 0 0 0-1.426-.2c-.3 0-.573.028-.819.086a2.1 2.1 0 0 0-.623.242c-.17.104-.3.229-.393.374a.888.888 0 0 0-.14.49c0 .196.053.373.156.529.104.156.252.304.443.444s.423.276.696.41c.273.135.582.274.926.416.47.197.892.407 1.266.628.374.222.695.473.963.753.268.279.472.598.614.957.142.359.214.776.214 1.253 0 .657-.125 1.21-.373 1.656a3.033 3.033 0 0 1-1.012 1.085 4.38 4.38 0 0 1-1.487.596c-.566.12-1.163.18-1.79.18a9.916 9.916 0 0 1-1.84-.164 5.544 5.544 0 0 1-1.512-.493v-2.63a5.033 5.033 0 0 0 3.237 1.2c.333 0 .624-.03.872-.09.249-.06.456-.144.623-.25.166-.108.29-.234.373-.38a1.023 1.023 0 0 0-.074-1.089 2.12 2.12 0 0 0-.537-.5 5.597 5.597 0 0 0-.807-.444 27.72 27.72 0 0 0-1.007-.436c-.918-.383-1.602-.852-2.053-1.405-.45-.553-.676-1.222-.676-2.005 0-.614.123-1.141.369-1.582.246-.441.58-.804 1.004-1.089a4.494 4.494 0 0 1 1.47-.629 7.536 7.536 0 0 1 1.77-.201zm-15.113.188h9.563v2.166H9.506v9.646H6.789v-9.646H3.375z" fill="white"/>
    </g>
  </g>

  <!-- ===== OUTER ORBIT: Infrastructure (35s) ===== -->

  <!-- Docker -->
  <g style="animation: outer0 35s linear infinite">
    <circle r="20" fill="#2496ED"/>
    <g transform="translate(-10,-10) scale(0.833)">
      <path d="M13.983 11.078h2.119a.186.186 0 00.186-.185V9.006a.186.186 0 00-.186-.186h-2.119a.185.185 0 00-.185.185v1.888c0 .102.083.185.185.185m-2.954-5.43h2.118a.186.186 0 00.186-.186V3.574a.186.186 0 00-.186-.185h-2.118a.185.185 0 00-.185.185v1.888c0 .102.082.185.185.185m0 2.716h2.118a.187.187 0 00.186-.186V6.29a.186.186 0 00-.186-.185h-2.118a.185.185 0 00-.185.185v1.887c0 .102.082.185.185.186m-2.93 0h2.12a.186.186 0 00.184-.186V6.29a.185.185 0 00-.185-.185H8.1a.185.185 0 00-.185.185v1.887c0 .102.083.185.185.186m-2.964 0h2.119a.186.186 0 00.185-.186V6.29a.185.185 0 00-.185-.185H5.136a.186.186 0 00-.186.185v1.887c0 .102.084.185.186.186m5.893 2.715h2.118a.186.186 0 00.186-.185V9.006a.186.186 0 00-.186-.186h-2.118a.185.185 0 00-.185.185v1.888c0 .102.082.185.185.185m-2.93 0h2.12a.185.185 0 00.184-.185V9.006a.185.185 0 00-.184-.186h-2.12a.185.185 0 00-.184.185v1.888c0 .102.083.185.185.185m-2.964 0h2.119a.185.185 0 00.185-.185V9.006a.185.185 0 00-.184-.186h-2.12a.186.186 0 00-.186.186v1.887c0 .102.084.185.186.185m-2.92 0h2.12a.185.185 0 00.184-.185V9.006a.185.185 0 00-.184-.186h-2.12a.185.185 0 00-.184.185v1.888c0 .102.082.185.185.185M23.763 9.89c-.065-.051-.672-.51-1.954-.51-.338.001-.676.03-1.01.087-.248-1.7-1.653-2.53-1.716-2.566l-.344-.199-.226.327c-.284.438-.49.922-.612 1.43-.23.97-.09 1.882.403 2.661-.595.332-1.55.413-1.744.42H.751a.751.751 0 00-.75.748 11.376 11.376 0 00.692 4.062c.545 1.428 1.355 2.48 2.41 3.124 1.18.723 3.1 1.137 5.275 1.137.983.003 1.963-.086 2.93-.266a12.248 12.248 0 003.823-1.389c.98-.567 1.86-1.288 2.61-2.136 1.252-1.418 1.998-2.997 2.553-4.4h.221c1.372 0 2.215-.549 2.68-1.009.309-.293.55-.65.707-1.046l.098-.288Z" fill="white"/>
    </g>
  </g>

  <!-- Apache Kafka (white bg circle for dark logo) -->
  <g style="animation: outer1 35s linear infinite">
    <circle r="20" fill="white"/>
    <g transform="translate(-10,-10) scale(0.833)">
      <path d="M9.71 2.136a1.43 1.43 0 0 0-2.047 0h-.007a1.48 1.48 0 0 0-.421 1.042c0 .41.161.777.422 1.039l.007.007c.257.264.616.426 1.019.426.404 0 .766-.162 1.027-.426l.003-.007c.261-.262.421-.629.421-1.039 0-.408-.159-.777-.421-1.042H9.71zM8.683 22.295c.404 0 .766-.167 1.027-.429l.003-.008c.261-.261.421-.631.421-1.036 0-.41-.159-.778-.421-1.044H9.71a1.42 1.42 0 0 0-1.027-.432 1.4 1.4 0 0 0-1.02.432h-.007c-.26.266-.422.634-.422 1.044 0 .406.161.775.422 1.036l.007.008c.258.262.617.429 1.02.429zm7.89-4.462c.359-.096.683-.33.882-.684l.027-.052a1.47 1.47 0 0 0 .114-1.067 1.454 1.454 0 0 0-.675-.896l-.021-.014a1.425 1.425 0 0 0-1.078-.132c-.36.091-.684.335-.881.686-.2.349-.241.75-.146 1.119.099.363.33.691.675.896h.002c.346.203.737.239 1.101.144zm-6.405-7.342a2.083 2.083 0 0 0-1.485-.627c-.58 0-1.103.242-1.482.627-.378.385-.612.916-.612 1.507s.233 1.124.612 1.514a2.08 2.08 0 0 0 2.967 0c.379-.39.612-.923.612-1.514s-.233-1.122-.612-1.507zm-.835-2.51c.843.141 1.6.552 2.178 1.144h.004c.092.093.182.196.265.299l1.446-.851a3.176 3.176 0 0 1-.047-1.808 3.149 3.149 0 0 1 1.456-1.926l.025-.016a3.062 3.062 0 0 1 2.345-.306c.77.21 1.465.721 1.898 1.482v.002c.431.757.518 1.626.313 2.408a3.145 3.145 0 0 1-1.456 1.928l-.198.118h-.02a3.095 3.095 0 0 1-2.154.201 3.127 3.127 0 0 1-1.514-.944l-1.444.848a4.162 4.162 0 0 1 0 2.879l1.444.846c.413-.47.939-.789 1.514-.944a3.041 3.041 0 0 1 2.371.319l.048.023v.002a3.17 3.17 0 0 1 1.408 1.906 3.215 3.215 0 0 1-.313 2.405l-.026.053-.003-.005a3.147 3.147 0 0 1-1.867 1.436 3.096 3.096 0 0 1-2.371-.318v-.006a3.156 3.156 0 0 1-1.456-1.927 3.175 3.175 0 0 1 .047-1.805l-1.446-.848a3.905 3.905 0 0 1-.265.294l-.004.005a3.938 3.938 0 0 1-2.178 1.138v1.699a3.09 3.09 0 0 1 1.56.862l.002.004c.565.572.914 1.368.914 2.243 0 .873-.35 1.664-.914 2.239l-.002.009a3.1 3.1 0 0 1-2.21.931 3.1 3.1 0 0 1-2.206-.93h-.002v-.009a3.186 3.186 0 0 1-.916-2.239c0-.875.35-1.672.916-2.243v-.004h.002a3.1 3.1 0 0 1 1.558-.862v-1.699a3.926 3.926 0 0 1-2.176-1.138l-.006-.005a4.098 4.098 0 0 1-1.173-2.874c0-1.122.452-2.136 1.173-2.872h.006a3.947 3.947 0 0 1 2.176-1.144V6.289a3.137 3.137 0 0 1-1.558-.864h-.002v-.004a3.192 3.192 0 0 1-.916-2.243c0-.871.35-1.669.916-2.243l.002-.002A3.084 3.084 0 0 1 8.683 0c.861 0 1.641.355 2.21.932v.002h.002c.565.574.914 1.372.914 2.243 0 .876-.35 1.667-.914 2.243l-.002.005a3.142 3.142 0 0 1-1.56.864v1.692zm8.121-1.129l-.012-.019a1.452 1.452 0 0 0-.87-.668 1.43 1.43 0 0 0-1.103.146h.002c-.347.2-.58.529-.677.896-.095.365-.054.768.146 1.119l.007.009c.2.347.519.579.874.673.357.103.755.059 1.098-.144l.019-.009a1.47 1.47 0 0 0 .657-.885 1.493 1.493 0 0 0-.141-1.118" fill="#231F20"/>
    </g>
  </g>

</svg>
